{"title":"Inhale.2010.DVDRiP.XViD.NORDIC-Zen_Bud ","uid":5998297,"size":749249434,"categoryP":"video","categoryS":"movies","magnet":"?xt=urn:btih:c1c0daa816b9e035ff948acbc166f3fcf5e9e2de&amp;dn=Inhale.2010.DVDRiP.XViD.NORDIC-Zen_Bud+&amp;tr=udp%3A%2F%2Ftracker.openbittorrent.com%3A80&amp;tr=udp%3A%2F%2Fopen.demonii.com%3A1337&amp;tr=udp%3A%2F%2Ftracker.coppersurfer.tk%3A6969&amp;tr=udp%3A%2F%2Fexodus.desync.com%3A6969","seeders":0,"leechers":1,"uploader":"Zen_Bud","files":-1,"time":1291107372,"description":"***** Inhale.2010.DVDRiP.XViD.NORDIC-Zen_Bud *****\n\nFormat                           : AVI\nFile size                        : 705 MiB\nDuration                         : 1h 19mn\nOverall bit rate                 : 1 238 Kbps\n\nVideo\n\nFormat                           : MPEG-4 Visual\nCodec ID/Hint                    : XviD\nDuration                         : 1h 19mn\nBit rate                         : 1 097 Kbps\nWidth                            : 720 pixels\nHeight                           : 576 pixels\nDisplay aspect ratio             : 16:9\nStream size                      : 625 MiB (89%)\nWriting library                  : XviD 1.1.2 (UTC 2006-11-01)\n\nAudio\n\nFormat                           : MPEG Audio\nCodec ID/Hint                    : MP3\nDuration                         : 1h 19mn\nBit rate                         : 128 Kbps\nChannel(s)                       : 2 channels\nSampling rate                    : 48.0 KHz\nStream size                      : 72.9 MiB (10%)\nWriting library                  : LAME3.98\nLanguage                         : English\n\nText #1\nLanguage                         : Finnish\n\nText #2\nLanguage                         : Norwegian\n\nText #3\nLanguage                         : Swedish\n\nText #4\nLanguage                         : Danish\n****************************************************************\n\nA couple goes to dangerous lengths\nto find a lung donor for their daughter. \n\n****************************************************************","torrent":{"xt":"urn:btih:c1c0daa816b9e035ff948acbc166f3fcf5e9e2de","amp;dn":"Inhale.2010.DVDRiP.XViD.NORDIC-Zen_Bud+","amp;tr":["udp%3A%2F%2Ftracker.openbittorrent.com%3A80","udp%3A%2F%2Fopen.demonii.com%3A1337","udp%3A%2F%2Ftracker.coppersurfer.tk%3A6969","udp%3A%2F%2Fexodus.desync.com%3A6969"],"infoHash":"c1c0daa816b9e035ff948acbc166f3fcf5e9e2de","infoHashBuffer":{"type":"Buffer","data":[193,192,218,168,22,185,224,53,255,148,138,203,193,102,243,252,245,233,226,222]},"announce":[],"urlList":[]}}